<svg width="188" height="100" viewBox="0 0 188 100" fill="none" xmlns="http://www.w3.org/2000/svg">
<path d="M24 48C24 34.7452 34.7452 24 48 24H188V100H24V48Z" fill="#0A0B0A"/>
<path d="M24 100V76C24 89.2548 13.2548 100 0 100H24Z" fill="#0A0B0A"/>
<path d="M188 24V0C188 13.2548 177.255 24 164 24H188Z" fill="#0A0B0A"/>
<rect x="48" y="48" width="36" height="36" rx="18" fill="#181818" fill-opacity="0.5"/>
<rect x="48.5" y="48.5" width="35" height="35" rx="17.5" stroke="#EFE7D2" stroke-opacity="0.15"/>
<path d="M66 62.7656C65.3603 62.7656 64.735 62.9553 64.2031 63.3107C63.6712 63.6661 63.2566 64.1713 63.0118 64.7623C62.767 65.3533 62.703 66.0036 62.8278 66.631C62.9526 67.2584 63.2606 67.8347 63.713 68.287C64.1653 68.7394 64.7416 69.0474 65.369 69.1722C65.9964 69.297 66.6467 69.233 67.2377 68.9882C67.8287 68.7434 68.3339 68.3288 68.6893 67.7969C69.0447 67.265 69.2344 66.6397 69.2344 66C69.2344 65.1422 68.8936 64.3195 68.287 63.713C67.6805 63.1064 66.8578 62.7656 66 62.7656ZM66 68.3906C65.5272 68.3906 65.065 68.2504 64.6718 67.9877C64.2787 67.725 63.9723 67.3517 63.7914 66.9149C63.6104 66.478 63.5631 65.9973 63.6553 65.5336C63.7476 65.0699 63.9752 64.6439 64.3096 64.3096C64.6439 63.9752 65.0699 63.7476 65.5336 63.6553C65.9973 63.5631 66.478 63.6104 66.9149 63.7914C67.3517 63.9723 67.725 64.2787 67.9877 64.6718C68.2504 65.065 68.3906 65.5272 68.3906 66C68.3888 66.6335 68.1363 67.2404 67.6884 67.6884C67.2404 68.1363 66.6335 68.3888 66 68.3906ZM69.0938 59.1094H62.9062C61.8993 59.1094 60.9335 59.5094 60.2215 60.2215C59.5094 60.9335 59.1094 61.8993 59.1094 62.9062V69.0938C59.1094 70.1007 59.5094 71.0665 60.2215 71.7785C60.9335 72.4906 61.8993 72.8906 62.9062 72.8906H69.0938C70.1007 72.8906 71.0665 72.4906 71.7785 71.7785C72.4906 71.0665 72.8906 70.1007 72.8906 69.0938V62.9062C72.8906 61.8993 72.4906 60.9335 71.7785 60.2215C71.0665 59.5094 70.1007 59.1094 69.0938 59.1094ZM72.0469 69.0938C72.0469 69.877 71.7357 70.6281 71.1819 71.1819C70.6281 71.7357 69.877 72.0469 69.0938 72.0469H62.9062C62.123 72.0469 61.3719 71.7357 60.8181 71.1819C60.2643 70.6281 59.9531 69.877 59.9531 69.0938V62.9062C59.9531 62.123 60.2643 61.3719 60.8181 60.8181C61.3719 60.2643 62.123 59.9531 62.9062 59.9531H69.0938C69.877 59.9531 70.6281 60.2643 71.1819 60.8181C71.7357 61.3719 72.0469 62.123 72.0469 62.9062V69.0938ZM70.3594 62.3438C70.3594 62.4828 70.3181 62.6188 70.2409 62.7344C70.1636 62.85 70.0538 62.9401 69.9253 62.9934C69.7968 63.0466 69.6555 63.0605 69.5191 63.0334C69.3827 63.0062 69.2574 62.9393 69.1591 62.8409C69.0607 62.7426 68.9938 62.6173 68.9666 62.4809C68.9395 62.3445 68.9534 62.2032 69.0066 62.0747C69.0599 61.9462 69.15 61.8364 69.2656 61.7591C69.3812 61.6819 69.5172 61.6406 69.6562 61.6406C69.8427 61.6406 70.0216 61.7147 70.1534 61.8466C70.2853 61.9784 70.3594 62.1573 70.3594 62.3438Z" fill="#EFE7D2"/>
<rect x="92" y="48" width="36" height="36" rx="18" fill="#181818" fill-opacity="0.5"/>
<rect x="92.5" y="48.5" width="35" height="35" rx="17.5" stroke="#EFE7D2" stroke-opacity="0.15"/>
<path d="M117.172 66C117.172 64.5815 116.751 63.1949 115.963 62.0155C115.175 60.8361 114.055 59.9169 112.745 59.3741C111.434 58.8312 109.992 58.6892 108.601 58.9659C107.21 59.2427 105.932 59.9257 104.929 60.9287C103.926 61.9317 103.243 63.2096 102.966 64.6008C102.689 65.992 102.831 67.4341 103.374 68.7446C103.917 70.055 104.836 71.1751 106.016 71.9632C107.195 72.7513 108.582 73.1719 110 73.1719C111.902 73.17 113.725 72.4138 115.069 71.0692C116.414 69.7246 117.17 67.9015 117.172 66ZM110.422 72.3141V67.5469H112.25C112.362 67.5469 112.469 67.5024 112.548 67.4233C112.627 67.3442 112.672 67.2369 112.672 67.125C112.672 67.0131 112.627 66.9058 112.548 66.8267C112.469 66.7476 112.362 66.7031 112.25 66.7031H110.422V64.875C110.424 64.5399 110.558 64.2191 110.795 63.9821C111.032 63.7452 111.352 63.6112 111.688 63.6094H112.813C112.924 63.6094 113.032 63.5649 113.111 63.4858C113.19 63.4067 113.234 63.2994 113.234 63.1875C113.234 63.0756 113.19 62.9683 113.111 62.8892C113.032 62.8101 112.924 62.7656 112.813 62.7656H111.688C111.129 62.7675 110.593 62.9903 110.198 63.3855C109.803 63.7807 109.58 64.3161 109.578 64.875V66.7031H107.75C107.638 66.7031 107.531 66.7476 107.452 66.8267C107.373 66.9058 107.328 67.0131 107.328 67.125C107.328 67.2369 107.373 67.3442 107.452 67.4233C107.531 67.5024 107.638 67.5469 107.75 67.5469H109.578V72.3141C107.94 72.2046 106.409 71.4628 105.307 70.2453C104.206 69.0277 103.621 67.4298 103.675 65.789C103.73 64.1481 104.42 62.5927 105.601 61.4514C106.781 60.31 108.358 59.6719 110 59.6719C111.642 59.6719 113.219 60.31 114.399 61.4514C115.58 62.5927 116.27 64.1481 116.325 65.789C116.379 67.4298 115.794 69.0277 114.693 70.2453C113.591 71.4628 112.06 72.2046 110.422 72.3141Z" fill="#EFE7D2"/>
<rect x="136" y="48" width="36" height="36" rx="18" fill="#181818" fill-opacity="0.5"/>
<rect x="136.5" y="48.5" width="35" height="35" rx="17.5" stroke="#EFE7D2" stroke-opacity="0.15"/>
<path d="M162.262 61.9008C162.23 61.8242 162.176 61.7587 162.108 61.7124C162.039 61.6662 161.958 61.6412 161.875 61.6406H159.653C159.378 61.1362 158.975 60.714 158.483 60.4174C157.991 60.1209 157.429 59.9606 156.855 59.9531C155.992 59.9493 155.163 60.2876 154.549 60.8937C153.934 61.4999 153.586 62.3246 153.578 63.1875V63.7992C150.597 63.089 148.136 60.6633 148.108 60.6422C148.054 60.5886 147.986 60.5508 147.912 60.5327C147.838 60.5145 147.76 60.5167 147.688 60.5391C147.615 60.5614 147.549 60.6031 147.498 60.6596C147.447 60.7161 147.412 60.7854 147.398 60.8601C146.786 64.207 147.791 66.4429 148.741 67.7297C149.244 68.4186 149.862 69.0156 150.569 69.4945C149.479 70.8164 147.686 71.5054 147.665 71.5125C147.605 71.5345 147.551 71.5701 147.507 71.6165C147.463 71.6628 147.43 71.7186 147.412 71.7797C147.392 71.8392 147.386 71.9025 147.394 71.9647C147.403 72.0269 147.426 72.0863 147.461 72.1383C147.531 72.2437 148.22 73.1718 150.625 73.1718C155.526 73.1718 159.625 69.382 160.019 64.5164L162.17 62.3578C162.231 62.3006 162.273 62.2259 162.289 62.1439C162.306 62.062 162.296 61.977 162.262 61.9008ZM159.309 64.0312C159.235 64.1042 159.193 64.2022 159.189 64.3054C158.901 68.8054 155.139 72.3281 150.625 72.3281C149.648 72.3281 149.022 72.1593 148.649 71.9906C149.444 71.5898 150.745 70.8023 151.539 69.607C151.571 69.5574 151.592 69.502 151.602 69.444C151.611 69.386 151.609 69.3266 151.595 69.2695C151.58 69.211 151.553 69.1564 151.516 69.1091C151.478 69.0619 151.431 69.0231 151.377 68.9953C151.363 68.9953 150.309 68.4468 149.395 67.1953C148.305 65.7047 147.876 63.8836 148.115 61.7812C149.141 62.6531 151.356 64.2984 153.93 64.7273C153.99 64.7388 154.053 64.7367 154.112 64.721C154.172 64.7054 154.227 64.6767 154.274 64.637C154.322 64.5972 154.359 64.5475 154.385 64.4914C154.41 64.4352 154.423 64.3741 154.422 64.3125V63.1875C154.427 62.5503 154.685 61.9412 155.138 61.4933C155.591 61.0453 156.203 60.795 156.841 60.7968C157.301 60.8035 157.75 60.9422 158.134 61.1965C158.518 61.4507 158.82 61.8099 159.006 62.2312C159.038 62.307 159.092 62.3716 159.161 62.4166C159.23 62.4617 159.311 62.4853 159.393 62.4843H160.855L159.309 64.0312Z" fill="#EFE7D2"/>
</svg>
