<svg width="119" height="31" viewBox="0 0 119 31" fill="none" xmlns="http://www.w3.org/2000/svg">
<path d="M11.0721 4.02331C12.7458 4.02331 14.2479 4.34517 15.5783 4.9889C16.9086 5.61118 18.0352 6.4373 18.9578 7.46726C19.902 8.47577 20.6208 9.62376 21.1143 10.9112C21.6293 12.1987 21.8868 13.5076 21.8868 14.838C21.8868 15.8036 21.7902 16.6941 21.5971 17.5094C21.404 18.3248 21.1358 19.0759 20.7925 19.7625C20.4491 20.4491 20.0522 21.0821 19.6016 21.6615C19.1724 22.2194 18.7003 22.7344 18.1854 23.2065L19.2475 24.3974C20.0844 25.1698 20.9963 25.8565 21.9834 26.4573C22.9704 27.0796 23.9682 27.5945 24.9767 28.0022C25.9852 28.4314 26.983 28.7533 27.9701 28.9678C28.9571 29.1824 29.8583 29.2897 30.6737 29.2897C31.3818 29.2897 32.1328 29.2253 32.9268 29.0966C33.7422 28.9678 34.5576 28.7747 35.3729 28.5172C36.2098 28.2597 37.0359 27.9164 37.8513 27.4873C38.6667 27.0796 39.4392 26.586 40.1687 26.0067L40.3618 26.2964C39.6537 27.0688 38.8598 27.7447 37.98 28.3241C37.1003 28.9249 36.1776 29.4184 35.212 29.8047C34.2464 30.1909 33.2486 30.4806 32.2187 30.6737C31.2102 30.8883 30.2124 30.9956 29.2253 30.9956C28.2383 30.9956 27.2512 30.9097 26.2642 30.7381C25.2771 30.5664 24.2901 30.2767 23.303 29.8691C22.316 29.4614 21.3289 28.9035 20.3419 28.1954C19.3548 27.5087 18.3678 26.6397 17.3807 25.5883L16.2864 24.4295C15.9216 24.6656 15.5032 24.8802 15.0311 25.0733C14.5805 25.2449 14.0977 25.3951 13.5827 25.5239C13.0677 25.6526 12.542 25.7492 12.0056 25.8136C11.4691 25.8779 10.9649 25.9101 10.4928 25.9101C8.99076 25.9101 7.59601 25.6097 6.30855 25.0089C5.04255 24.3866 3.93748 23.582 2.99334 22.5949C2.07066 21.5864 1.3411 20.4384 0.804662 19.151C0.268221 17.8635 0 16.5439 0 15.192C0 13.8187 0.246763 12.4669 0.740289 11.1365C1.23382 9.78469 1.95265 8.58306 2.89678 7.53164C3.86238 6.48021 5.03182 5.63263 6.40511 4.9889C7.7784 4.34517 9.33408 4.02331 11.0721 4.02331ZM11.04 24.7836C12.4776 24.7192 13.7436 24.3974 14.838 23.818C15.9323 23.2172 16.8335 22.4662 17.5416 21.5649C18.2712 20.6423 18.8184 19.6338 19.1831 18.5394C19.5479 17.4451 19.7303 16.3722 19.7303 15.3208C19.7303 14.1406 19.505 12.9497 19.0544 11.7481C18.6252 10.525 18.0137 9.43064 17.2198 8.46504C16.4473 7.47799 15.5032 6.68406 14.3874 6.08324C13.2716 5.46097 12.0377 5.14984 10.6859 5.14984C9.35554 5.14984 8.15391 5.45024 7.08103 6.05106C6.0296 6.63041 5.13911 7.38143 4.40955 8.30411C3.67999 9.22679 3.12209 10.2568 2.73585 11.394C2.34961 12.5098 2.15649 13.6149 2.15649 14.7092C2.15649 15.8894 2.37107 17.0803 2.80022 18.2819C3.25083 19.4835 3.87311 20.5672 4.66704 21.5328C5.46097 22.4983 6.39438 23.2816 7.46726 23.8824C8.5616 24.4832 9.7525 24.7836 11.04 24.7836Z" fill="#EFE7D2"/>
<path d="M25.121 4.34517H29.7237V4.66704H29.5628C29.4126 4.66704 29.2731 4.73141 29.1444 4.86016C29.0156 4.96745 28.9083 5.10692 28.8225 5.27858C28.7367 5.42879 28.6616 5.61118 28.5972 5.82575C28.5543 6.01887 28.5328 6.19053 28.5328 6.34074V23.4961C28.5328 23.6678 28.5543 23.8609 28.5972 24.0755C28.6401 24.2686 28.7045 24.451 28.7903 24.6227C28.8976 24.7943 29.0049 24.9445 29.1122 25.0733C29.2409 25.202 29.3911 25.2664 29.5628 25.2664H29.7237V25.5883H25.121V25.2664H25.282C25.4536 25.2664 25.6038 25.2127 25.7326 25.1055C25.8613 24.9767 25.9686 24.8265 26.0545 24.6548C26.1617 24.4617 26.2368 24.2686 26.2798 24.0755C26.3227 23.8609 26.3441 23.6678 26.3441 23.4961V6.34074C26.3441 6.19053 26.3227 6.01887 26.2798 5.82575C26.2368 5.63263 26.1617 5.45024 26.0545 5.27858C25.9686 5.10692 25.8613 4.96745 25.7326 4.86016C25.6038 4.73141 25.4536 4.66704 25.282 4.66704H25.121V4.34517Z" fill="#EFE7D2"/>
<path d="M40.9621 25.2664H41.123V25.5883H36.5525V25.2664H36.7135C36.8851 25.2664 37.0353 25.202 37.1641 25.0733C37.2928 24.9445 37.4001 24.7943 37.4859 24.6227C37.5932 24.451 37.6683 24.2686 37.7112 24.0755C37.7542 23.8609 37.7756 23.6678 37.7756 23.4961V5.53607H34.042C33.6987 5.53607 33.3983 5.61118 33.1408 5.76138C32.8833 5.91158 32.6687 6.1047 32.497 6.34074C32.3254 6.55531 32.1966 6.80208 32.1108 7.08102C32.025 7.33852 31.982 7.59601 31.982 7.8535H31.6602V4.34517H46.1119V7.8535H45.79C45.79 7.59601 45.7471 7.33852 45.6613 7.08102C45.5755 6.80208 45.4467 6.55531 45.2751 6.34074C45.1034 6.1047 44.8888 5.91158 44.6313 5.76138C44.3738 5.61118 44.0734 5.53607 43.7301 5.53607H39.9321V23.4961C39.9321 23.6678 39.9536 23.8609 39.9965 24.0755C40.0394 24.2686 40.1038 24.451 40.1896 24.6227C40.2969 24.7943 40.4042 24.9445 40.5115 25.0733C40.6402 25.202 40.7904 25.2664 40.9621 25.2664Z" fill="#EFE7D2"/>
<path d="M57.4443 5.18202C55.8565 5.18202 54.4724 5.4717 53.2923 6.05106C52.1335 6.60896 51.168 7.34925 50.3955 8.27192C49.623 9.17315 49.0436 10.1924 48.6574 11.3296C48.2926 12.4669 48.1102 13.5934 48.1102 14.7092C48.1102 15.9752 48.357 17.2198 48.8505 18.4429C49.3441 19.6445 50.02 20.7174 50.8783 21.6615C51.758 22.5842 52.7773 23.3352 53.936 23.9146C55.0947 24.4725 56.35 24.7514 57.7018 24.7514C58.088 24.7514 58.5387 24.7085 59.0536 24.6227C59.5901 24.5368 60.1158 24.3759 60.6308 24.1399C61.1458 23.8824 61.6178 23.5283 62.047 23.0777C62.4976 22.6271 62.8409 22.037 63.077 21.3074H63.3988V24.8801C63.077 24.8801 62.7336 24.9231 62.3688 25.0089C62.0255 25.0947 61.6393 25.1913 61.2101 25.2986C60.6522 25.4488 60.03 25.5883 59.3433 25.717C58.6781 25.8457 57.97 25.9101 57.219 25.9101C55.3522 25.9101 53.7107 25.5883 52.2945 24.9445C50.8783 24.3008 49.6981 23.4639 48.754 22.434C47.8098 21.404 47.1017 20.2453 46.6297 18.9578C46.1576 17.6489 45.9216 16.3293 45.9216 14.9989C45.9216 13.6685 46.1576 12.3489 46.6297 11.04C47.1017 9.73105 47.8206 8.5616 48.7862 7.53164C49.7517 6.48021 50.9641 5.63263 52.4232 4.9889C53.8824 4.34517 55.599 4.02331 57.5731 4.02331C58.2812 4.02331 58.9142 4.08768 59.4721 4.21643C60.0514 4.34517 60.5664 4.47392 61.017 4.60267C61.3389 4.70995 61.6286 4.79579 61.8861 4.86016C62.165 4.90307 62.4332 4.92453 62.6907 4.92453V8.49723H62.3688C62.2401 7.83204 62.0041 7.28487 61.6607 6.85572C61.3174 6.40511 60.9097 6.06179 60.4377 5.82575C59.9871 5.58972 59.4935 5.42879 58.9571 5.34296C58.4421 5.23567 57.9378 5.18202 57.4443 5.18202Z" fill="#EFE7D2"/>
<path d="M79.0108 25.2664H79.1717C79.3219 25.2664 79.4614 25.2127 79.5901 25.1055C79.7189 24.9767 79.8262 24.8265 79.912 24.6548C80.0193 24.4617 80.0944 24.2686 80.1373 24.0755C80.1802 23.8609 80.2017 23.6678 80.2017 23.4961V14.7414H69.902V23.4961C69.902 23.6678 69.9235 23.8609 69.9664 24.0755C70.0093 24.2686 70.0737 24.451 70.1595 24.6227C70.2453 24.7943 70.3419 24.9445 70.4492 25.0733C70.5779 25.202 70.7281 25.2664 70.8998 25.2664H71.0607V25.5883H66.5546V25.2664H66.7155C66.8657 25.2664 67.0052 25.2127 67.134 25.1055C67.2627 24.9767 67.37 24.8265 67.4558 24.6548C67.5631 24.4617 67.6382 24.2686 67.6811 24.0755C67.724 23.8609 67.7455 23.6678 67.7455 23.4961V6.34074C67.7455 6.19053 67.724 6.01887 67.6811 5.82575C67.6382 5.63263 67.5738 5.45024 67.488 5.27858C67.4022 5.10692 67.2949 4.96745 67.1661 4.86016C67.0374 4.73141 66.8872 4.66704 66.7155 4.66704H66.5546V4.34517H71.0607V4.66704H70.8998C70.7281 4.66704 70.5779 4.73141 70.4492 4.86016C70.3204 4.96745 70.2131 5.10692 70.1273 5.27858C70.0629 5.45024 70.0093 5.63263 69.9664 5.82575C69.9235 6.01887 69.902 6.19053 69.902 6.34074V13.6149H80.2017V6.34074C80.2017 6.19053 80.1802 6.01887 80.1373 5.82575C80.0944 5.63263 80.03 5.45024 79.9442 5.27858C79.8583 5.10692 79.7511 4.96745 79.6223 4.86016C79.4936 4.73141 79.3434 4.66704 79.1717 4.66704H79.0108V4.34517H83.5169V4.66704H83.3559C83.1843 4.66704 83.0341 4.73141 82.9053 4.86016C82.7766 4.96745 82.6693 5.10692 82.5835 5.27858C82.5191 5.45024 82.4655 5.63263 82.4225 5.82575C82.3796 6.01887 82.3582 6.19053 82.3582 6.34074V23.4961C82.3582 23.6678 82.3796 23.8609 82.4225 24.0755C82.4869 24.2686 82.562 24.451 82.6478 24.6227C82.7337 24.7943 82.8302 24.9445 82.9375 25.0733C83.0663 25.202 83.2057 25.2664 83.3559 25.2664H83.5169V25.5883H79.0108V25.2664Z" fill="#EFE7D2"/>
<path d="M86.1906 25.2664H86.3515C86.5232 25.2664 86.6734 25.2127 86.8022 25.1055C86.9309 24.9767 87.0382 24.8265 87.124 24.6548C87.2313 24.4832 87.3064 24.3008 87.3493 24.1077C87.4137 23.9146 87.4459 23.7322 87.4459 23.5605V6.34074C87.4459 6.19053 87.4137 6.01887 87.3493 5.82575C87.3064 5.63263 87.2313 5.45024 87.124 5.27858C87.0382 5.10692 86.9309 4.96745 86.8022 4.86016C86.6734 4.73141 86.5232 4.66704 86.3515 4.66704H86.1906V4.34517H98.5824V7.33852H98.2605C98.2176 6.84499 98.0245 6.41584 97.6812 6.05106C97.3379 5.66482 96.8014 5.4717 96.0719 5.4717H89.6024V13.6149H94.9453C95.4389 13.6149 95.8466 13.4647 96.1684 13.1643C96.5117 12.8639 96.6834 12.5098 96.6834 12.1021H97.0053V16.1254H96.6834C96.6834 15.7392 96.5225 15.4066 96.2006 15.1276C95.8787 14.8487 95.4603 14.7092 94.9453 14.7092H89.6024V24.4617H96.6512C97.0589 24.4617 97.413 24.3652 97.7134 24.172C98.0138 23.9789 98.2605 23.7536 98.4537 23.4961C98.6682 23.2172 98.8184 22.9275 98.9043 22.6271C99.0116 22.3052 99.0652 22.037 99.0652 21.8224H99.3871V25.5883H86.1906V25.2664Z" fill="#EFE7D2"/>
<path d="M105.192 25.2664H105.353V25.5883H101.78V25.2664H101.941C102.091 25.2664 102.231 25.202 102.36 25.0733C102.51 24.9445 102.628 24.7943 102.714 24.6227C102.799 24.451 102.864 24.2686 102.907 24.0755C102.971 23.8609 103.003 23.6678 103.003 23.4961V6.34074C103.003 6.19053 102.982 6.01887 102.939 5.82575C102.917 5.63263 102.864 5.45024 102.778 5.27858C102.692 5.10692 102.574 4.96745 102.424 4.86016C102.274 4.73141 102.091 4.66704 101.877 4.66704H101.716V4.34517H104.967L116.65 22.7558V6.34074C116.65 6.19053 116.618 6.01887 116.554 5.82575C116.511 5.63263 116.436 5.45024 116.328 5.27858C116.243 5.10692 116.135 4.96745 116.007 4.86016C115.878 4.73141 115.728 4.66704 115.556 4.66704H115.395V4.34517H119V4.66704H118.839C118.667 4.66704 118.517 4.73141 118.388 4.86016C118.26 4.96745 118.142 5.10692 118.034 5.27858C117.949 5.45024 117.884 5.63263 117.841 5.82575C117.798 6.01887 117.777 6.19053 117.777 6.34074V25.5883H115.781L104.13 7.11321V23.4961C104.13 23.6678 104.151 23.8609 104.194 24.0755C104.237 24.2686 104.301 24.451 104.387 24.6227C104.495 24.7943 104.613 24.9445 104.741 25.0733C104.87 25.202 105.02 25.2664 105.192 25.2664Z" fill="#EFE7D2"/>
</svg>
